<?xml version="1.0" encoding="UTF-8" standalone="no"?>
<svg xmlns:dc="http://purl.org/dc/elements/1.1/" xmlns:cc="http://creativecommons.org/ns#" xmlns:rdf="http://www.w3.org/1999/02/22-rdf-syntax-ns#" xmlns:svg="http://www.w3.org/2000/svg" xmlns="http://www.w3.org/2000/svg" xmlns:inkscape="http://www.inkscape.org/namespaces/inkscape" version="1.1" x="0px" y="0px" viewBox="0 0 66 66" xml:space="preserve" id="svg" inkscape:version="0.91 r13725" width="66" height="66"><title id="title">Arabic translation</title><metadata id="metadata26"><rdf:RDF><cc:Work rdf:about=""><dc:format>image/svg+xml</dc:format><dc:type rdf:resource="http://purl.org/dc/dcmitype/StillImage" /><dc:title>Arabic translation</dc:title><cc:license rdf:resource="http://creativecommons.org/licenses/by/3.0/" /><dc:date>2020-03-28</dc:date><dc:creator><cc:Agent><dc:title>Ahmad Gharbeia</dc:title></cc:Agent></dc:creator><dc:publisher><cc:Agent><dc:title>The noun Project</dc:title></cc:Agent></dc:publisher><dc:subject><rdf:Bag><rdf:li>translation</rdf:li><rdf:li>languages</rdf:li></rdf:Bag></dc:subject><dc:description>An icon for the noun project indicating translation, featuring the letter A in Latin script and the letter Ain from Arabic script. Based on icon number 2822455 by Icon Lauk from The Noun Project.</dc:description><dc:contributor><cc:Agent><dc:title>Icon Lauk</dc:title></cc:Agent></dc:contributor><dc:source>https://thenounproject.com/term/translate/2822455/</dc:source><dc:relation>derivative</dc:relation></cc:Work><cc:License rdf:about="http://creativecommons.org/licenses/by/3.0/"><cc:permits rdf:resource="http://creativecommons.org/ns#Reproduction" /><cc:permits rdf:resource="http://creativecommons.org/ns#Distribution" /><cc:requires rdf:resource="http://creativecommons.org/ns#Notice" /><cc:requires rdf:resource="http://creativecommons.org/ns#Attribution" /><cc:permits rdf:resource="http://creativecommons.org/ns#DerivativeWorks" /></cc:License></rdf:RDF></metadata><path d="M33.0 9.0C33.0 6.79 31.21 5.0 29.0 5.0C29.0 5.0 9.0 5.0 9.0 5.0C6.79 5.0 5.0 6.79 5.0 9.0C5.0 9.0 5.0 29.0 5.0 29.0C5.0 31.21 6.79 33.0 9.0 33.0C9.0 33.0 29.0 33.0 29.0 33.0C31.21 33.0 33.0 31.21 33.0 29.0C33.0 29.0 33.0 9.0 33.0 9.0C33.0 9.0 33.0 9.0 33.0 9.0M24.38 25.92C24.26 25.98 24.13 26.0 24.0 26.0C23.61 26.0 23.24 25.77 23.08 25.38C23.08 25.38 21.25 21.0 21.25 21.0C21.25 21.0 16.75 21.0 16.75 21.0C16.75 21.0 14.92 25.38 14.92 25.38C14.71 25.89 14.13 26.14 13.62 25.92C13.11 25.71 12.86 25.12 13.08 24.62C13.08 24.62 15.0 20.01 15.0 20.01C15.0 20.01 15.0 20.0 15.0 20.0C15.0 20.0 15.31 19.28 15.31 19.28C15.31 19.28 18.08 12.62 18.08 12.62C18.23 12.24 18.6 12.0 19.0 12.0C19.4 12.0 19.77 12.24 19.92 12.62C19.92 12.62 24.92 24.62 24.92 24.62C25.14 25.12 24.89 25.71 24.38 25.92C24.38 25.92 24.38 25.92 24.38 25.92" id="path6" /><polygon points="20.42,19.0 19.0,15.6 17.58,19.0" id="polygon8" /><path id="path4172" d="M37.0 33.0C34.79 33.0 33.0 34.79 33.0 37.0C33.0 37.0 33.0 57.0 33.0 57.0C33.0 59.21 34.79 61.0 37.0 61.0C37.0 61.0 57.0 61.0 57.0 61.0C59.21 61.0 61.0 59.21 61.0 57.0C61.0 57.0 61.0 37.0 61.0 37.0C61.0 34.79 59.21 33.0 57.0 33.0C57.0 33.0 37.0 33.0 37.0 33.0C37.0 33.0 37.0 33.0 37.0 33.0M45.033203 39.050781C46.214844 39.050781 47.10083 39.641114 47.919922 40.742188C47.919922 40.742188 47.705078 41.025391 47.705078 41.025391C47.006836 40.703125 46.334717 40.582031 45.623047 40.582031C44.132569 40.582031 42.9375 41.334228 42.9375 41.884766C42.9375 42.489014 43.286378 42.972168 44.105469 43.589844C44.588868 43.938965 45.260742 44.314453 45.529297 44.314453C45.797852 44.314453 46.039306 44.179688 46.267578 44.072266C47.476074 43.494874 48.686035 42.972168 49.894531 42.515625C49.894531 42.515625 49.960941 42.554685 49.960941 42.554685C49.960941 42.554685 49.451175 44.31445 49.451175 44.31445C47.75928 44.972409 46.160404 45.670163 44.884769 46.435544C43.528568 47.254635 42.628909 48.356931 42.628909 49.404294C42.628909 51.660153 45.099857 53.203122 48.765628 53.203122C50.094974 53.203122 51.303226 53.042722 52.189456 52.81445C52.189456 52.81445 52.283206 53.056638 52.283206 53.056638C51.598391 53.566891 50.859867 54.090573 50.027347 54.560544C49.59766 54.802243 48.806643 54.949216 47.732425 54.949216C44.469485 54.949216 41.7168 53.405759 41.7168 49.941403C41.7168 48.18237 42.656253 46.731443 43.945315 45.603513C42.495119 44.569577 41.931644 43.843991 41.931644 42.675778C41.931644 42.098385 42.132327 41.305905 42.535159 40.621091C43.152835 39.600583 44.066409 39.050778 45.033206 39.050778C45.033206 39.050778 45.033203 39.050781 45.033203 39.050781" /><path d="M36.1682 20.5222C36.2228 20.6087 36.2833 20.6872 36.3609 20.7531C36.3766 20.7665 36.3832 20.7873 36.3999 20.7998C36.3999 20.7998 40.3999 23.7998 40.3999 23.7998C40.5801 23.9346 40.7905 24.0 40.999 24.0C41.3032 24.0 41.6035 23.8623 41.7998 23.5996C42.1313 23.1582 42.042 22.5312 41.6001 22.2002C41.6001 22.2002 39.9998 21.0 39.9998 21.0C39.9998 21.0 43.0 21.0 43.0 21.0C43.2856 21.0 50.0 21.0908 50.0 29.0C50.0 29.5527 50.4478 30.0 51.0 30.0C51.5522 30.0 52.0 29.5527 52.0 29.0C52.0 19.1143 43.0898 19.0 43.0 19.0C43.0 19.0 39.9998 19.0 39.9998 19.0C39.9998 19.0 41.6001 17.7998 41.6001 17.7998C42.042 17.4687 42.1314 16.8418 41.7998 16.4004C41.4697 15.958 40.8433 15.8701 40.3999 16.2002C40.3999 16.2002 36.3999 19.2002 36.3999 19.2002C36.3832 19.2127 36.3766 19.2335 36.3609 19.2469C36.2831 19.3129 36.2226 19.3913 36.168 19.4779C36.1456 19.5135 36.1166 19.5422 36.099 19.5803C36.0389 19.7088 36.0 19.8487 36.0 20.0C36.0 20.1513 36.0389 20.2911 36.099 20.4196C36.1168 20.4578 36.1458 20.4866 36.1682 20.5222C36.1682 20.5222 36.1682 20.5222 36.1682 20.5222" id="path14" /><path d="M29.832 45.4779C29.7774 45.3913 29.7169 45.3129 29.6391 45.2469C29.6234 45.2335 29.6168 45.2127 29.6001 45.2002C29.6001 45.2002 25.6001 42.2002 25.6001 42.2002C25.1577 41.8691 24.5322 41.958 24.2002 42.4004C23.8687 42.8418 23.958 43.4688 24.3999 43.7998C24.3999 43.7998 26.0002 45.0 26.0002 45.0C26.0002 45.0 23.0 45.0 23.0 45.0C22.7144 45.0 16.0 44.9092 16.0 37.0C16.0 36.4473 15.5522 36.0 15.0 36.0C14.4478 36.0 14.0 36.4473 14.0 37.0C14.0 46.8857 22.9102 47.0 23.0 47.0C23.0 47.0 26.0002 47.0 26.0002 47.0C26.0002 47.0 24.3999 48.2002 24.3999 48.2002C23.958 48.5313 23.8686 49.1582 24.2002 49.5996C24.3965 49.8623 24.6968 50.0 25.001 50.0C25.2095 50.0 25.4199 49.9346 25.6001 49.7998C25.6001 49.7998 29.6001 46.7998 29.6001 46.7998C29.6168 46.7873 29.6234 46.7665 29.6391 46.7531C29.7168 46.6872 29.7773 46.6088 29.8318 46.5222C29.8542 46.4866 29.8832 46.4577 29.901 46.4196C29.9611 46.2911 30.0 46.1513 30.0 46.0C30.0 45.8487 29.9611 45.7088 29.901 45.5803C29.8834 45.5422 29.8544 45.5135 29.832 45.4779C29.832 45.4779 29.832 45.4779 29.832 45.4779" id="path16" /></svg>
